<?xml version="1.0" encoding="UTF-8"?>
<svg id="Camada_1" data-name="Camada 1" xmlns="http://www.w3.org/2000/svg" xmlns:xlink="http://www.w3.org/1999/xlink" viewBox="0 0 1396.39 644.61">
  <defs>
    <style>
      .cls-1 {
        fill: #0077f2;
      }

      .cls-1, .cls-2, .cls-3, .cls-4, .cls-5, .cls-6, .cls-7, .cls-8, .cls-9, .cls-10 {
        stroke-width: 0px;
      }

      .cls-2 {
        fill: url(#Gradiente_sem_nome_14-4);
      }

      .cls-11 {
        fill: none;
        font-family: Montserrat-SemiBold, Montserrat;
        font-size: 14px;
        font-weight: 600;
      }

      .cls-3 {
        fill: url(#Gradiente_sem_nome_14-3);
      }

      .cls-4 {
        fill: url(#Gradiente_sem_nome_14-2);
      }

      .cls-5 {
        fill: url(#Gradiente_sem_nome_14-5);
      }

      .cls-6 {
        fill: #0048e2;
      }

      .cls-7 {
        fill: #0077f1;
      }

      .cls-12 {
        clip-path: url(#clippath);
      }

      .cls-8 {
        fill: #00b3fc;
      }

      .cls-9 {
        fill: url(#Gradiente_sem_nome_14);
      }

      .cls-10 {
        fill: #0046e1;
      }
    </style>
    <linearGradient id="Gradiente_sem_nome_14" data-name="Gradiente sem nome 14" x1="791.65" y1="324.45" x2="1357.76" y2="324.45" gradientUnits="userSpaceOnUse">
      <stop offset="0" stop-color="#00b6f5"/>
      <stop offset=".5" stop-color="#0083f2"/>
      <stop offset="1" stop-color="#0043df"/>
    </linearGradient>
    <linearGradient id="Gradiente_sem_nome_14-2" data-name="Gradiente sem nome 14" x1="851.84" y1="324.35" x2="1294.01" y2="324.35" xlink:href="#Gradiente_sem_nome_14"/>
    <linearGradient id="Gradiente_sem_nome_14-3" data-name="Gradiente sem nome 14" x1="1055.7" y1="324.1" x2="1152.6" y2="324.1" xlink:href="#Gradiente_sem_nome_14"/>
    <linearGradient id="Gradiente_sem_nome_14-4" data-name="Gradiente sem nome 14" x1="874.6" y1="324.04" x2="1264.42" y2="324.04" xlink:href="#Gradiente_sem_nome_14"/>
    <clipPath id="clippath">
      <text class="cls-11" transform="translate(907.39 163.98) rotate(-44.67)"><tspan x="0" y="0">D</tspan></text>
      <text class="cls-11" transform="translate(915.55 155.93) rotate(-42.03)"><tspan x="0" y="0">R</tspan></text>
      <text class="cls-11" transform="translate(923.09 149.15) rotate(-39.65)"><tspan x="0" y="0">E</tspan></text>
      <text class="cls-11" transform="translate(930.17 143.28) rotate(-37.41)"><tspan x="0" y="0">Y</tspan></text>
      <text class="cls-11" transform="translate(937.49 137.73) rotate(-35.82)"><tspan x="0" y="0"> </tspan></text>
      <text class="cls-11" transform="translate(940.57 135.47) rotate(-34.33)"><tspan x="0" y="0">T</tspan></text>
      <text class="cls-11" transform="translate(947.44 130.75) rotate(-32.05)"><tspan x="0" y="0">R</tspan></text>
      <text class="cls-11" transform="translate(956.02 125.37) rotate(-29.53)"><tspan x="0" y="0">A</tspan></text>
      <text class="cls-11" transform="translate(965.06 120.23) rotate(-26.83)"><tspan x="0" y="0">D</tspan></text>
      <text class="cls-11" transform="translate(975.28 115.08) rotate(-24.28)"><tspan x="0" y="0">E</tspan></text>
      <text class="cls-11" transform="translate(983.81 111.28) rotate(-22.65)"><tspan x="0" y="0"> </tspan></text>
      <text class="cls-11" transform="translate(987.28 109.78) rotate(-20.92)"><tspan x="0" y="0">R</tspan></text>
      <text class="cls-11" transform="translate(996.74 106.17) rotate(-18.52)"><tspan x="0" y="0">E</tspan></text>
      <text class="cls-11" transform="translate(1005.59 103.21) rotate(-16.28)"><tspan x="0" y="0">S</tspan></text>
      <text class="cls-11" transform="translate(1013.93 100.77) rotate(-14.05)"><tspan x="0" y="0">E</tspan></text>
      <text class="cls-11" transform="translate(1022.95 98.49) rotate(-11.61)"><tspan x="0" y="0">A</tspan></text>
      <text class="cls-11" transform="translate(1033.12 96.41) rotate(-9.08)"><tspan x="0" y="0">R</tspan></text>
      <text class="cls-11" transform="translate(1043.14 94.8) rotate(-6.59)"><tspan x="0" y="0">C</tspan></text>
      <text class="cls-11" transform="translate(1053.13 93.63) rotate(-3.99)"><tspan x="0" y="0">H</tspan></text>
      <text class="cls-11" transform="translate(1064.39 92.91) rotate(-2.15)"><tspan x="0" y="0"> </tspan></text>
      <text class="cls-11" transform="translate(1068.22 92.76) rotate(-1.22)"><tspan x="0" y="0"> </tspan></text>
      <text class="cls-11" transform="translate(1072.07 92.7) rotate(-.93)"><tspan x="0" y="0"> </tspan></text>
      <text class="cls-11" transform="translate(1075.86 92.65) rotate(.93)"><tspan x="0" y="0"> </tspan></text>
      <text class="cls-11" transform="translate(1079.7 92.7) rotate(1.55)"><tspan x="0" y="0"> </tspan></text>
      <text class="cls-11" transform="translate(1083.51 92.8) rotate(2.47)"><tspan x="0" y="0"> </tspan></text>
      <text class="cls-11" transform="translate(1087.35 92.97) rotate(3.4)"><tspan x="0" y="0"> </tspan></text>
      <text class="cls-11" transform="translate(1091.17 93.2) rotate(4.34)"><tspan x="0" y="0"> </tspan></text>
      <text class="cls-11" transform="translate(1094.99 93.49) rotate(5.28)"><tspan x="0" y="0"> </tspan></text>
      <text class="cls-11" transform="translate(1098.8 93.84) rotate(6.21)"><tspan x="0" y="0"> </tspan></text>
      <text class="cls-11" transform="translate(1102.6 94.25) rotate(7.15)"><tspan x="0" y="0"> </tspan></text>
      <text class="cls-11" transform="translate(1106.39 94.73) rotate(8.09)"><tspan x="0" y="0"> </tspan></text>
      <text class="cls-11" transform="translate(1110.17 95.26) rotate(9.03)"><tspan x="0" y="0"> </tspan></text>
      <text class="cls-11" transform="translate(1113.95 95.86) rotate(9.97)"><tspan x="0" y="0"> </tspan></text>
      <text class="cls-11" transform="translate(1117.74 96.53) rotate(10.92)"><tspan x="0" y="0"> </tspan></text>
      <text class="cls-11" transform="translate(1121.5 97.25) rotate(11.87)"><tspan x="0" y="0"> </tspan></text>
      <text class="cls-11" transform="translate(1125.24 98.04) rotate(12.82)"><tspan x="0" y="0"> </tspan></text>
      <text class="cls-11" transform="translate(1128.95 98.82) rotate(14.71)"><tspan x="0" y="0">D</tspan></text>
      <text class="cls-11" transform="translate(1140.04 101.74) rotate(17.39)"><tspan x="0" y="0">R</tspan></text>
      <text class="cls-11" transform="translate(1149.71 104.78) rotate(19.79)"><tspan x="0" y="0">E</tspan></text>
      <text class="cls-11" transform="translate(1158.34 107.88) rotate(22.05)"><tspan x="0" y="0">Y</tspan></text>
      <text class="cls-11" transform="translate(1166.84 111.36) rotate(23.66)"><tspan x="0" y="0"> </tspan></text>
      <text class="cls-11" transform="translate(1170.35 112.87) rotate(25.17)"><tspan x="0" y="0">T</tspan></text>
      <text class="cls-11" transform="translate(1177.9 116.39) rotate(27.45)"><tspan x="0" y="0">R</tspan></text>
      <text class="cls-11" transform="translate(1186.91 121.07) rotate(29.98)"><tspan x="0" y="0">A</tspan></text>
      <text class="cls-11" transform="translate(1195.91 126.24) rotate(32.67)"><tspan x="0" y="0">D</tspan></text>
      <text class="cls-11" transform="translate(1205.56 132.45) rotate(35.22)"><tspan x="0" y="0">E</tspan></text>
      <text class="cls-11" transform="translate(1213.13 137.84) rotate(36.82)"><tspan x="0" y="0"> </tspan></text>
      <text class="cls-11" transform="translate(1216.21 140.09) rotate(38.53)"><tspan x="0" y="0">R</tspan></text>
      <text class="cls-11" transform="translate(1224.13 146.41) rotate(40.91)"><tspan x="0" y="0">E</tspan></text>
      <text class="cls-11" transform="translate(1231.14 152.49) rotate(43.11)"><tspan x="0" y="0">S</tspan></text>
      <text class="cls-11" transform="translate(1237.53 158.46) rotate(45.32)"><tspan x="0" y="0">E</tspan></text>
      <text class="cls-11" transform="translate(1244.06 165.04) rotate(47.72)"><tspan x="0" y="0">A</tspan></text>
      <text class="cls-11" transform="translate(1251.05 172.74) rotate(50.24)"><tspan x="0" y="0">R</tspan></text>
      <text class="cls-11" transform="translate(1257.54 180.53) rotate(52.72)"><tspan x="0" y="0">C</tspan></text>
      <text class="cls-11" transform="translate(1263.66 188.55) rotate(55.34)"><tspan x="0" y="0">H</tspan></text>
      <text class="cls-11" transform="translate(1270.03 197.85) rotate(57.19)"><tspan x="0" y="0"> </tspan></text>
      <text class="cls-11" transform="translate(1272.09 201.06) rotate(58.13)"><tspan x="0" y="0"> </tspan></text>
      <text class="cls-11" transform="translate(1274.11 204.3) rotate(59.07)"><tspan x="0" y="0"> </tspan></text>
      <text class="cls-11" transform="translate(1276.08 207.59) rotate(60.01)"><tspan x="0" y="0"> </tspan></text>
      <text class="cls-11" transform="translate(1277.99 210.9) rotate(60.96)"><tspan x="0" y="0"> </tspan></text>
      <text class="cls-11" transform="translate(1279.86 214.26) rotate(61.91)"><tspan x="0" y="0"> </tspan></text>
      <text class="cls-11" transform="translate(1281.65 217.62) rotate(62.85)"><tspan x="0" y="0"> </tspan></text>
      <text class="cls-11" transform="translate(1283.4 221.03) rotate(63.79)"><tspan x="0" y="0"> </tspan></text>
      <text class="cls-11" transform="translate(1285.09 224.45) rotate(64.74)"><tspan x="0" y="0"> </tspan></text>
      <text class="cls-11" transform="translate(1286.73 227.93) rotate(65.69)"><tspan x="0" y="0"> </tspan></text>
      <text class="cls-11" transform="translate(1288.3 231.41) rotate(66.64)"><tspan x="0" y="0"> </tspan></text>
      <text class="cls-11" transform="translate(1289.82 234.93) rotate(67.59)"><tspan x="0" y="0"> </tspan></text>
      <text class="cls-11" transform="translate(1291.28 238.45) rotate(68.53)"><tspan x="0" y="0"> </tspan></text>
      <text class="cls-11" transform="translate(1292.67 242.01) rotate(69.48)"><tspan x="0" y="0"> </tspan></text>
      <text class="cls-11" transform="translate(1294.02 245.59) rotate(70.43)"><tspan x="0" y="0"> </tspan></text>
      <text class="cls-11" transform="translate(1295.3 249.2) rotate(71.38)"><tspan x="0" y="0"> </tspan></text>
      <text class="cls-11" transform="translate(1296.53 252.84) rotate(72.33)"><tspan x="0" y="0"> </tspan></text>
      <text class="cls-11" transform="translate(1297.74 256.44) rotate(74.23)"><tspan x="0" y="0">D</tspan></text>
      <text class="cls-11" transform="translate(1300.84 267.48) rotate(76.91)"><tspan x="0" y="0">R</tspan></text>
      <text class="cls-11" transform="translate(1303.13 277.33) rotate(79.31)"><tspan x="0" y="0">E</tspan></text>
      <text class="cls-11" transform="translate(1304.83 286.36) rotate(81.57)"><tspan x="0" y="0">Y</tspan></text>
      <text class="cls-11" transform="translate(1306.15 295.47) rotate(83.17)"><tspan x="0" y="0"> </tspan></text>
      <text class="cls-11" transform="translate(1306.63 299.23) rotate(84.67)"><tspan x="0" y="0">T</tspan></text>
      <text class="cls-11" transform="translate(1307.42 307.53) rotate(86.93)"><tspan x="0" y="0">R</tspan></text>
      <text class="cls-11" transform="translate(1307.94 317.67) rotate(89.07)"><tspan x="0" y="0">A</tspan></text>
      <text class="cls-11" transform="translate(1308.09 328.06) rotate(92.06)"><tspan x="0" y="0">D</tspan></text>
      <text class="cls-11" transform="translate(1307.66 339.5) rotate(94.59)"><tspan x="0" y="0">E</tspan></text>
      <text class="cls-11" transform="translate(1306.87 348.78) rotate(96.2)"><tspan x="0" y="0"> </tspan></text>
      <text class="cls-11" transform="translate(1306.51 352.57) rotate(97.92)"><tspan x="0" y="0">R</tspan></text>
      <text class="cls-11" transform="translate(1305.11 362.61) rotate(100.32)"><tspan x="0" y="0">E</tspan></text>
      <text class="cls-11" transform="translate(1303.44 371.74) rotate(102.55)"><tspan x="0" y="0">S</tspan></text>
      <text class="cls-11" transform="translate(1301.55 380.26) rotate(104.78)"><tspan x="0" y="0">E</tspan></text>
      <text class="cls-11" transform="translate(1299.19 389.25) rotate(107.23)"><tspan x="0" y="0">A</tspan></text>
      <text class="cls-11" transform="translate(1296.11 399.19) rotate(109.78)"><tspan x="0" y="0">R</tspan></text>
      <text class="cls-11" transform="translate(1292.69 408.7) rotate(112.28)"><tspan x="0" y="0">C</tspan></text>
      <text class="cls-11" transform="translate(1288.89 418.04) rotate(114.92)"><tspan x="0" y="0">H</tspan></text>
      <text class="cls-11" transform="translate(1284.08 428.24) rotate(116.79)"><tspan x="0" y="0"> </tspan></text>
      <text class="cls-11" transform="translate(1282.35 431.66) rotate(117.74)"><tspan x="0" y="0"> </tspan></text>
      <text class="cls-11" transform="translate(1280.57 435.05) rotate(118.68)"><tspan x="0" y="0"> </tspan></text>
      <text class="cls-11" transform="translate(1278.73 438.4) rotate(119.62)"><tspan x="0" y="0"> </tspan></text>
      <text class="cls-11" transform="translate(1276.85 441.72) rotate(120.57)"><tspan x="0" y="0"> </tspan></text>
      <text class="cls-11" transform="translate(1274.91 445.01) rotate(121.51)"><tspan x="0" y="0"> </tspan></text>
      <text class="cls-11" transform="translate(1272.89 448.3) rotate(122.46)"><tspan x="0" y="0"> </tspan></text>
      <text class="cls-11" transform="translate(1270.85 451.51) rotate(123.39)"><tspan x="0" y="0"> </tspan></text>
      <text class="cls-11" transform="translate(1268.74 454.71) rotate(124.34)"><tspan x="0" y="0"> </tspan></text>
      <text class="cls-11" transform="translate(1266.58 457.87) rotate(125.28)"><tspan x="0" y="0"> </tspan></text>
      <text class="cls-11" transform="translate(1264.37 461) rotate(126.21)"><tspan x="0" y="0"> </tspan></text>
      <text class="cls-11" transform="translate(1262.11 464.08) rotate(127.15)"><tspan x="0" y="0"> </tspan></text>
      <text class="cls-11" transform="translate(1259.8 467.13) rotate(128.09)"><tspan x="0" y="0"> </tspan></text>
      <text class="cls-11" transform="translate(1257.45 470.14) rotate(129.03)"><tspan x="0" y="0"> </tspan></text>
      <text class="cls-11" transform="translate(1255.03 473.12) rotate(129.97)"><tspan x="0" y="0"> </tspan></text>
      <text class="cls-11" transform="translate(1252.57 476.05) rotate(130.9)"><tspan x="0" y="0"> </tspan></text>
      <text class="cls-11" transform="translate(1250.07 478.94) rotate(131.84)"><tspan x="0" y="0"> </tspan></text>
      <text class="cls-11" transform="translate(1247.51 481.8) rotate(132.78)"><tspan x="0" y="0"> </tspan></text>
      <text class="cls-11" transform="translate(1244.99 484.62) rotate(134.65)"><tspan x="0" y="0">D</tspan></text>
      <text class="cls-11" transform="translate(1236.92 492.77) rotate(137.29)"><tspan x="0" y="0">R</tspan></text>
      <text class="cls-11" transform="translate(1229.47 499.64) rotate(139.66)"><tspan x="0" y="0">E</tspan></text>
      <text class="cls-11" transform="translate(1222.47 505.59) rotate(141.9)"><tspan x="0" y="0">Y</tspan></text>
      <text class="cls-11" transform="translate(1215.2 511.24) rotate(143.5)"><tspan x="0" y="0"> </tspan></text>
      <text class="cls-11" transform="translate(1212.16 513.52) rotate(144.99)"><tspan x="0" y="0">T</tspan></text>
      <text class="cls-11" transform="translate(1205.35 518.32) rotate(147.26)"><tspan x="0" y="0">R</tspan></text>
      <text class="cls-11" transform="translate(1196.82 523.81) rotate(149.78)"><tspan x="0" y="0">A</tspan></text>
      <text class="cls-11" transform="translate(1187.87 529.04) rotate(152.47)"><tspan x="0" y="0">D</tspan></text>
      <text class="cls-11" transform="translate(1177.68 534.33) rotate(155.04)"><tspan x="0" y="0">E</tspan></text>
      <text class="cls-11" transform="translate(1169.21 538.23) rotate(156.66)"><tspan x="0" y="0"> </tspan></text>
      <text class="cls-11" transform="translate(1165.77 539.77) rotate(158.38)"><tspan x="0" y="0">R</tspan></text>
      <text class="cls-11" transform="translate(1156.31 543.51) rotate(160.8)"><tspan x="0" y="0">E</tspan></text>
      <text class="cls-11" transform="translate(1147.54 546.56) rotate(163.03)"><tspan x="0" y="0">S</tspan></text>
      <text class="cls-11" transform="translate(1139.21 549.11) rotate(165.26)"><tspan x="0" y="0">E</tspan></text>
      <text class="cls-11" transform="translate(1130.24 551.49) rotate(167.69)"><tspan x="0" y="0">A</tspan></text>
      <text class="cls-11" transform="translate(1120.07 553.7) rotate(170.23)"><tspan x="0" y="0">R</tspan></text>
      <text class="cls-11" transform="translate(1110.09 555.42) rotate(172.72)"><tspan x="0" y="0">C</tspan></text>
      <text class="cls-11" transform="translate(1100.09 556.71) rotate(175.34)"><tspan x="0" y="0">H</tspan></text>
      <text class="cls-11" transform="translate(1088.86 557.57) rotate(177.17)"><tspan x="0" y="0"> </tspan></text>
      <text class="cls-11" transform="translate(1085.04 557.76) rotate(178.1)"><tspan x="0" y="0"> </tspan></text>
      <text class="cls-11" transform="translate(1081.2 557.89) rotate(179.03)"><tspan x="0" y="0"> </tspan></text>
      <text class="cls-11" transform="translate(1077.37 557.93) rotate(179.07)"><tspan x="0" y="0"> </tspan></text>
      <text class="cls-11" transform="translate(1073.54 557.96) rotate(-179.07)"><tspan x="0" y="0"> </tspan></text>
      <text class="cls-11" transform="translate(1069.73 557.9) rotate(-178.2)"><tspan x="0" y="0"> </tspan></text>
      <text class="cls-11" transform="translate(1065.9 557.78) rotate(-177.28)"><tspan x="0" y="0"> </tspan></text>
      <text class="cls-11" transform="translate(1062.07 557.6) rotate(-176.34)"><tspan x="0" y="0"> </tspan></text>
      <text class="cls-11" transform="translate(1058.25 557.36) rotate(-175.41)"><tspan x="0" y="0"> </tspan></text>
      <text class="cls-11" transform="translate(1054.45 557.05) rotate(-174.48)"><tspan x="0" y="0"> </tspan></text>
      <text class="cls-11" transform="translate(1050.64 556.68) rotate(-173.54)"><tspan x="0" y="0"> </tspan></text>
      <text class="cls-11" transform="translate(1046.83 556.25) rotate(-172.6)"><tspan x="0" y="0"> </tspan></text>
      <text class="cls-11" transform="translate(1043.04 555.76) rotate(-171.66)"><tspan x="0" y="0"> </tspan></text>
      <text class="cls-11" transform="translate(1039.25 555.2) rotate(-170.71)"><tspan x="0" y="0"> </tspan></text>
      <text class="cls-11" transform="translate(1035.47 554.59) rotate(-169.77)"><tspan x="0" y="0"> </tspan></text>
      <text class="cls-11" transform="translate(1031.72 553.91) rotate(-168.82)"><tspan x="0" y="0"> </tspan></text>
      <text class="cls-11" transform="translate(1027.94 553.16) rotate(-167.87)"><tspan x="0" y="0"> </tspan></text>
      <text class="cls-11" transform="translate(1024.21 552.36) rotate(-166.93)"><tspan x="0" y="0"> </tspan></text>
      <text class="cls-11" transform="translate(1020.49 551.5) rotate(-165.98)"><tspan x="0" y="0"> </tspan></text>
      <text class="cls-11" transform="translate(1016.78 550.57) rotate(-165.03)"><tspan x="0" y="0"> </tspan></text>
      <text class="cls-11" transform="translate(1013.1 549.65) rotate(-163.14)"><tspan x="0" y="0">D</tspan></text>
      <text class="cls-11" transform="translate(1002.12 546.31) rotate(-160.46)"><tspan x="0" y="0">R</tspan></text>
      <text class="cls-11" transform="translate(992.57 542.92) rotate(-158.05)"><tspan x="0" y="0">E</tspan></text>
      <text class="cls-11" transform="translate(984.05 539.49) rotate(-155.8)"><tspan x="0" y="0">Y</tspan></text>
      <text class="cls-11" transform="translate(975.68 535.68) rotate(-154.19)"><tspan x="0" y="0"> </tspan></text>
      <text class="cls-11" transform="translate(972.25 534.06) rotate(-152.69)"><tspan x="0" y="0">T</tspan></text>
      <text class="cls-11" transform="translate(964.83 530.25) rotate(-150.41)"><tspan x="0" y="0">R</tspan></text>
      <text class="cls-11" transform="translate(956.01 525.24) rotate(-147.88)"><tspan x="0" y="0">A</tspan></text>
      <text class="cls-11" transform="translate(947.22 519.75) rotate(-145.2)"><tspan x="0" y="0">D</tspan></text>
      <text class="cls-11" transform="translate(937.8 513.18) rotate(-142.65)"><tspan x="0" y="0">E</tspan></text>
      <text class="cls-11" transform="translate(930.42 507.5) rotate(-141.05)"><tspan x="0" y="0"> </tspan></text>
      <text class="cls-11" transform="translate(927.44 505.15) rotate(-139.34)"><tspan x="0" y="0">R</tspan></text>
      <text class="cls-11" transform="translate(919.75 498.54) rotate(-136.96)"><tspan x="0" y="0">E</tspan></text>
      <text class="cls-11" transform="translate(912.96 492.19) rotate(-134.76)"><tspan x="0" y="0">S</tspan></text>
      <text class="cls-11" transform="translate(906.81 486) rotate(-132.55)"><tspan x="0" y="0">E</tspan></text>
      <text class="cls-11" transform="translate(900.52 479.17) rotate(-130.14)"><tspan x="0" y="0">A</tspan></text>
      <text class="cls-11" transform="translate(893.82 471.22) rotate(-127.63)"><tspan x="0" y="0">R</tspan></text>
      <text class="cls-11" transform="translate(887.62 463.19) rotate(-125.15)"><tspan x="0" y="0">C</tspan></text>
      <text class="cls-11" transform="translate(881.82 454.97) rotate(-122.53)"><tspan x="0" y="0">H</tspan></text>
      <text class="cls-11" transform="translate(875.8 445.43) rotate(-120.67)"><tspan x="0" y="0"> </tspan></text>
      <text class="cls-11" transform="translate(873.85 442.14) rotate(-119.73)"><tspan x="0" y="0"> </tspan></text>
      <text class="cls-11" transform="translate(871.96 438.82) rotate(-118.79)"><tspan x="0" y="0"> </tspan></text>
      <text class="cls-11" transform="translate(870.12 435.47) rotate(-117.84)"><tspan x="0" y="0"> </tspan></text>
      <text class="cls-11" transform="translate(868.33 432.08) rotate(-116.9)"><tspan x="0" y="0"> </tspan></text>
      <text class="cls-11" transform="translate(866.59 428.67) rotate(-115.95)"><tspan x="0" y="0"> </tspan></text>
      <text class="cls-11" transform="translate(864.91 425.21) rotate(-115)"><tspan x="0" y="0"> </tspan></text>
      <text class="cls-11" transform="translate(863.3 421.77) rotate(-114.06)"><tspan x="0" y="0"> </tspan></text>
      <text class="cls-11" transform="translate(861.74 418.26) rotate(-113.11)"><tspan x="0" y="0"> </tspan></text>
      <text class="cls-11" transform="translate(860.24 414.75) rotate(-112.16)"><tspan x="0" y="0"> </tspan></text>
      <text class="cls-11" transform="translate(858.79 411.2) rotate(-111.21)"><tspan x="0" y="0"> </tspan></text>
      <text class="cls-11" transform="translate(857.41 407.64) rotate(-110.26)"><tspan x="0" y="0"> </tspan></text>
      <text class="cls-11" transform="translate(856.08 404.05) rotate(-109.31)"><tspan x="0" y="0"> </tspan></text>
      <text class="cls-11" transform="translate(854.82 400.43) rotate(-108.36)"><tspan x="0" y="0"> </tspan></text>
      <text class="cls-11" transform="translate(853.61 396.81) rotate(-107.41)"><tspan x="0" y="0"> </tspan></text>
      <text class="cls-11" transform="translate(852.46 393.14) rotate(-106.46)"><tspan x="0" y="0"> </tspan></text>
      <text class="cls-11" transform="translate(851.33 389.53) rotate(-104.56)"><tspan x="0" y="0">D</tspan></text>
      <text class="cls-11" transform="translate(848.46 378.45) rotate(-101.89)"><tspan x="0" y="0">R</tspan></text>
      <text class="cls-11" transform="translate(846.38 368.52) rotate(-99.48)"><tspan x="0" y="0">E</tspan></text>
      <text class="cls-11" transform="translate(844.86 359.44) rotate(-97.23)"><tspan x="0" y="0">Y</tspan></text>
      <text class="cls-11" transform="translate(843.75 350.33) rotate(-95.63)"><tspan x="0" y="0"> </tspan></text>
      <text class="cls-11" transform="translate(843.34 346.54) rotate(-94.14)"><tspan x="0" y="0">T</tspan></text>
      <text class="cls-11" transform="translate(842.72 338.23) rotate(-91.89)"><tspan x="0" y="0">R</tspan></text>
      <text class="cls-11" transform="translate(842.35 328.11) rotate(-89.07)"><tspan x="0" y="0">A</tspan></text>
      <text class="cls-11" transform="translate(842.47 317.72) rotate(-86.76)"><tspan x="0" y="0">D</tspan></text>
      <text class="cls-11" transform="translate(843.14 306.26) rotate(-84.21)"><tspan x="0" y="0">E</tspan></text>
      <text class="cls-11" transform="translate(844.12 297.01) rotate(-82.6)"><tspan x="0" y="0"> </tspan></text>
      <text class="cls-11" transform="translate(844.56 293.22) rotate(-80.88)"><tspan x="0" y="0">R</tspan></text>
      <text class="cls-11" transform="translate(846.17 283.22) rotate(-78.48)"><tspan x="0" y="0">E</tspan></text>
      <text class="cls-11" transform="translate(848.04 274.11) rotate(-76.24)"><tspan x="0" y="0">S</tspan></text>
      <text class="cls-11" transform="translate(850.1 265.64) rotate(-74.01)"><tspan x="0" y="0">E</tspan></text>
      <text class="cls-11" transform="translate(852.65 256.71) rotate(-71.56)"><tspan x="0" y="0">A</tspan></text>
      <text class="cls-11" transform="translate(855.93 246.86) rotate(-69.02)"><tspan x="0" y="0">R</tspan></text>
      <text class="cls-11" transform="translate(859.56 237.39) rotate(-66.51)"><tspan x="0" y="0">C</tspan></text>
      <text class="cls-11" transform="translate(863.57 228.14) rotate(-63.87)"><tspan x="0" y="0">H</tspan></text>
      <text class="cls-11" transform="translate(868.57 218.06) rotate(-62.01)"><tspan x="0" y="0"> </tspan></text>
      <text class="cls-11" transform="translate(870.37 214.68) rotate(-61.07)"><tspan x="0" y="0"> </tspan></text>
      <text class="cls-11" transform="translate(872.23 211.32) rotate(-60.12)"><tspan x="0" y="0"> </tspan></text>
      <text class="cls-11" transform="translate(874.14 207.99) rotate(-59.17)"><tspan x="0" y="0"> </tspan></text>
      <text class="cls-11" transform="translate(876.1 204.71) rotate(-58.23)"><tspan x="0" y="0"> </tspan></text>
      <text class="cls-11" transform="translate(878.1 201.47) rotate(-57.3)"><tspan x="0" y="0"> </tspan></text>
      <text class="cls-11" transform="translate(880.17 198.25) rotate(-56.35)"><tspan x="0" y="0"> </tspan></text>
      <text class="cls-11" transform="translate(882.29 195.06) rotate(-55.41)"><tspan x="0" y="0"> </tspan></text>
      <text class="cls-11" transform="translate(884.47 191.91) rotate(-54.47)"><tspan x="0" y="0"> </tspan></text>
      <text class="cls-11" transform="translate(886.69 188.79) rotate(-53.53)"><tspan x="0" y="0"> </tspan></text>
      <text class="cls-11" transform="translate(888.97 185.7) rotate(-52.59)"><tspan x="0" y="0"> </tspan></text>
      <text class="cls-11" transform="translate(891.28 182.68) rotate(-51.66)"><tspan x="0" y="0"> </tspan></text>
      <text class="cls-11" transform="translate(893.67 179.67) rotate(-50.72)"><tspan x="0" y="0"> </tspan></text>
      <text class="cls-11" transform="translate(896.08 176.71) rotate(-49.78)"><tspan x="0" y="0"> </tspan></text>
      <text class="cls-11" transform="translate(898.55 173.79) rotate(-48.85)"><tspan x="0" y="0"> </tspan></text>
      <text class="cls-11" transform="translate(901.08 170.9) rotate(-47.9)"><tspan x="0" y="0"> </tspan></text>
      <text class="cls-11" transform="translate(903.65 168.05) rotate(-46.97)"><tspan x="0" y="0"> </tspan></text>
      <text class="cls-11" transform="translate(906.26 165.26) rotate(-46.03)"><tspan x="0" y="0"> </tspan></text>
    </clipPath>
    <linearGradient id="Gradiente_sem_nome_14-5" data-name="Gradiente sem nome 14" x1="784" y1="324.74" x2="1396.39" y2="324.74" xlink:href="#Gradiente_sem_nome_14"/>
  </defs>
  <g>
    <path class="cls-9" d="M1233.45,89.65c102.54,70,148.45,197.86,111.81,317.45-18.63,60.81-57.22,113.53-109.26,149.98-109.72,76.85-255.68,65.19-353.31-25.76-117.88-109.82-121.56-290.73-9.38-405.71,94.76-97.12,247.7-112.72,360.15-35.96ZM1258.96,143.55c-92.38-93.36-242.35-102.3-345.1-20.1-147.61,118.08-120.6,353.79,49.88,433.2,119,55.43,258.55,15.5,328.47-94.86,63.04-99.5,49.6-234.5-33.25-318.23Z"/>
    <path class="cls-4" d="M1078.7,103.2c.5.41,1.49,2.75,1.49,2.75l11.75.61s1.19-2.29,2.57-2.71c2.82-.85,27.2,2.27,30.61,3.69,2.17.9,2.39,4.65,2.39,4.65,0,0,4.41,1.46,7.73,2.26,1.68.4,3.76.9,3.76.9,0,0,2.63-2.35,4.43-2.27,4.35.18,26.34,8.68,28.69,12.13.92,1.35.22,3.45.22,3.45l9.01,4.9s2.25-2.79,5.09-1.95,22.71,14.83,24.37,17.43c1.22,1.93.09,4.23.09,4.23l9.62,7.83s3.12-1.04,5.26-.07c2.45,1.12,20.29,19.7,21.18,22.24.98,2.78-1.32,4.33-1.32,4.33l6.54,8.85s2.65-1.6,3.81-.41c1.54,1.59,9.44,12.75,10.89,15.31,1.73,3.05,5.47,11.11,6.6,14.49l-2.62,1.67,4.32,9.82s3.6-1.21,3.73-.88c.5,1.25,5.36,12.58,6.08,14.55,1.28,3.51,5.59,14.4,5.26,18.2-.09,1.02-2.98,1.65-2.98,1.65,0,0,.1.5.15.87.56,4.79,3.35,14.89,4.22,20.49,3.26,21.21,3.04,43.75,0,64.99-.8,5.61-4.03,19.89-4.03,19.89,0,0,2.89,2.06,2.71,5.3s-7.19,22.36-8.83,25.66-5.87,2.98-5.87,2.98l-4.54,10.27s1.82,2.88.81,6.81c-.69,2.69-12.28,21.87-14.33,23.12s-5.51.49-5.51.49l-6.29,8.76s1.18,2.39,1.05,3.89c-.29,3.52-10.34,14.31-13.42,17.12-.85.77-7.02,5.94-7.39,6.1-2.28,1.03-5.67-.18-5.67-.18l-8.47,6.59s1.09,3.69-1.32,6.5c-1.85,2.15-17.12,12.58-20.07,14.02-4.64,2.26-8.68.37-8.68.37l-10.25,4.72s.57,4.52-3.53,6.91c-3.61,2.1-20.65,8.64-24.32,8.54-2.33-.06-5-2.15-5-2.15l-11.35,3.72s-.27,2.3-1.24,3.31c-2.49,2.57-23.54,6.27-27.56,6.11-3.4-.13-5.18-3.35-5.18-3.35l-12.81.15s-.69,1.73-1.65,2.45c-2.27,1.71-17.62,1.44-21.39,1.16-2.46-.18-9.6-1.27-11.11-2.95-1.01-1.12-1.4-3.06-1.4-3.06l-11.39-1.78s-1.03,2.27-3.75,2.59c-4.88.57-27.8-4.83-30.97-8.25-1.28-1.38-.64-4.47-.64-4.47l-10-3.76s-.77,1.28-1.68,1.66c-3.67,1.54-6.27-.68-9.5-2.2-3.31-1.55-17.76-9.89-19.41-12.06-1.47-1.94-.98-4.47-.98-4.47l-8.16-5.6s-3.63,1.96-7.48-.29c-2.9-1.69-17.19-13.74-19.17-16.03-3.82-4.4-1.66-7.77-1.66-7.77l-7.45-7.86s-2.78.91-4.76.3c-3.15-.97-18.78-21.45-18.75-24.79.01-1.68,1.17-4.12,1.17-4.12l-5.2-9.14s-3.19.81-5.28-2.1c-2.29-3.2-12.68-23.01-12.36-26.52.2-2.21,1.73-4.02,1.73-4.02l-3.4-11.31s-3.55-.42-4.92-2.88c-1.68-3.02-6.21-21.84-6.48-25.59-.35-4.83,3.3-6.48,3.3-6.48l-.87-11.47s-1.72-.13-2.48-.86c-3.47-3.3-3.52-29.79.01-32.99.86-.78,2.64-1.23,2.64-1.23l.74-11.23s-3.44-2.06-2.98-6.55c.36-3.51,4.39-22.5,6.05-25.46,1.41-2.52,5.15-4.03,5.15-4.03l2.9-10.34s-2.28-1.85-1.94-4.84c.28-2.41,10.47-23.64,12.18-25.43s5.21-2.28,5.21-2.28l5.22-8.28s-2.67-2.78-1.19-5.62c.21-.4,4.67-6.98,5.47-8.07,2.14-2.94,12.6-16.38,15.11-17.09,1.51-.43,3.48.47,3.48.47l7.1-7.81s-.65-2.44-.23-3.99c.33-1.21,4.3-5.41,5.48-6.56,2.83-2.76,15.73-13.85,18.9-14.22,1.51-.18,3.68,1.16,3.68,1.16l8.87-6.45s-.42-3.32.97-5.11c1.68-2.17,22.46-12.67,25.52-13.41,2.89-.7,5.46,1.76,5.46,1.76,0,0,8.38-3.24,9.15-3.57.86-.38,1.7-.65,1.7-.65,0,0,.37-3.54,1.49-4.58,5.99-5.61,19.65-6.7,27.23-7.94,3.37-.55,5.09,2.62,5.09,2.62,0,0,3.68-.22,7.89-.74,3.08-.39,4.37-.63,4.37-.63,0,0,.85-2.01,1.95-2.77,4.69-3.24,21.49-3.69,27.67-3.16,1.36.12,2.76.07,3.88,1ZM1285.19,375.58l-26.8-.06-7.93,6.26s-5.89,14.86-8.41,20.26c-50.75,109.13-194.03,141.24-286.22,62.73-90.52-77.09-85.49-216.53,9.21-287.93,94.26-71.08,233.61-33.3,279.6,74.71,1.49,3.51,7.1,16.62,7.1,16.62l8.02,5.04,25.22.35s-.11-1.61-.37-2.3c-3.21-.06-4.02.5-4.69-1.15-1.05-2.56-10.15-28.11-10.55-30.3-.08-.44,2.82-1.59,2.82-1.59l-4.05-9.44s-4.35,1.03-4.8.26c-2-3.5-14.44-23.48-15.82-27.51-.74-2.18,2.23-3.68,2.23-3.68l-6.61-8.68s-2.47,1.98-4.07,1.35c-4.51-1.8-17.54-17.8-21.61-21.53-1.88-1.82.42-5.37.42-5.37l-8.89-7.51s-1.11,2.34-3.73,2.28c-4.15-.1-20.66-13.57-25.3-16.43-2.52-1.68-.57-5.71-.57-5.71l-8.07-4.71s-2,3.45-3.65,3.02l-28.99-11.33c-1.99-1.38-1.14-4.86-1.14-4.86l-10.54-2.9s-1.18,2.96-2.78,3.42c-2.76.8-9.46-.25-13.26-.84-4.1-.63-15.97-1.68-18.17-4.51-.92-1.19-1.19-4.23-1.19-4.23,0,0-5.96-.46-7.02-.44-1.8.05-3.6,0-3.6,0,0,0-.44,3.13-2.42,3.87-3.75,1.41-11.45,1.83-15.56,2.14-3.88.29-10.04.9-14.06.43-1.74-.2-3.54-4.11-3.54-4.11l-11.46,1.67s.11,2.57-.43,3.53c-2.05,3.6-14.68,6.66-18.91,7.7-3.48.86-7.84,2.69-11.46,1.61-1.32-.39-3.14-3.54-3.14-3.54,0,0-.71.1-1.48.42-.56.24-8.65,3.74-8.65,3.74,0,0,1.18,4.49-1.25,6.35-7.39,4.48-17.66,10.83-24.38,12.67-3.64,1-6.4-1.92-6.4-1.92l-8.18,5.65s3.93,3.33-2.72,8.92c-.75.63-17.4,15.73-19.91,15.91-1.76.13-5.04-.96-5.04-.96l-6.58,7.6s1.2,2.08,1.23,3.48c.06,2.97-5.53,10.24-7.55,12.97-3.16,4.28-6.94,11.08-12.77,13.61-.89.38-3.73-.78-3.73-.78l-4.79,8.63s2.8,3.25,1.1,8.1c-1.81,5.17-6.8,15.4-9.43,20.55s-7.59,3.48-7.59,3.48l-2.55,10s3.67,3.07,3.46,6.76c-1.98,10.92-3.85,21.63-8.26,27.75-.77,1.07-3.75,1.25-3.75,1.25l-.56,10.55s3.78,1.15,4.31,3.97c.81,4.28.5,20.63.05,25.49-.56,6.15-4.41,5.7-4.41,5.7l.74,11.18s3.28.43,4.35,1.49c2.82,2.77,5.64,16.97,6.61,21.71.34,1.64.59,3.86.79,5.03.68,4.06-3.62,6.22-3.63,6.61,0,.46,3.37,10.34,3.37,10.34,0,0,2.92-.24,4.83.88,2.66,1.57,8.55,15.03,10.25,18.76,1.17,2.58,2.59,4.86,2.42,8.71-.1,2.21-1.82,4.3-1.82,4.3l4.85,8.49s4.39-.54,7.59,2.38c1.11,1.01,14.69,18.88,15.17,20.05,1.53,3.76-.67,6.17-.67,6.17l7.01,7.75s4.1-1.56,6.96-.24c1.61.74,10.1,8.24,12.35,10.13,2.37,1.99,6.91,5.24,8.31,8.16s.27,5.66.27,5.66l8.1,5.53s2.36-2.58,6.58-1.46c3.02.81,13.97,6.97,17.37,8.91,1.66.95,6.37,3.5,7.32,4.67,1.73,2.13.8,4.49.8,4.49l9.36,3.88s2.6-3.64,5.79-2.9c6.84,2.22,14.69,3.98,21.36,5.93,1.48.43,4.88,1.49,5.89,2.35,1.65,1.4,1.73,4.57,1.73,4.57l11.16,1.88s.92-1.69,1.61-2.27c3.67-3.11,27.81-1.62,31.53.74,1.37.87,2.11,3.79,2.11,3.79l12.23-.47s.16-3.44,2.37-4.92c1.2-.8,20.92-4.21,23.71-4.39,7.36-.48,8.01,3.43,8.01,3.43l10.77-3.39s-.59-3.66,3.09-5.9c6.86-3.08,13.96-6.2,20.73-8.5s8.58.76,8.58.76l10.31-4.35s-.62-2.78-.22-4.3c.9-3.49,5.19-5.33,7.71-7.06,3.67-2.53,12.14-8.45,15.56-9.78,4.79-1.87,6.92.74,6.92.74l7.74-6.26s-.93-3.14-.61-5.13c.56-3.45,5.43-6.82,7.71-9.28,3.46-3.72,7.37-7.47,10.61-11.39,3.26-2.6,7.76-.86,7.76-.86l6.02-8.33s-3.15-2.36-.67-7.69c1.9-4.07,9.72-16.99,12.45-20.52,2.96-3.83,7.11-2.63,7.11-2.63l4.08-9.48s-1.23-.62-2.02-3.11c-1.39-4.38,6.2-27.06,8.86-28.94,1.5-1.06,5.5-1.45,5.5-1.45,0,0,.13-.47.23-.96ZM1116.43,148.01c-19.46-2.39-39.84-5.93-59.57-3.77-1.6.17-3.3.3-4.91.51-1.45.19-15.77,2.32-15.77,3.13,9.32.27,18.77-.03,28.14.02,5.22.02,10.49.01,15.68,0,10.41-.03,21.24.35,31.55.21.91-.01,2.83.02,4.88-.09ZM1253.48,282.35l33.34.36-1.29-5.37c-8.32.01-27.85-.63-27.85-.63l-9.07-5.89s-5.53-13.66-7.69-18.53c-23.12-51.99-68.55-90.27-123.93-104.07.12,2.53.18,5.43.18,5.43,0,0,3.3.58,5.98,1.36,57.34,16.65,98.15,57.36,118.71,112.81.86,2.32,2.88,8.57,2.88,8.57l8.74,5.96ZM1286.82,366.6l-35.42.06-7.26,6.92s-4.11,13.18-6.97,19.82c-25.04,58.05-81.07,99.92-143.66,105.85-21.29,2.02-36.57-1.18-56.96-2.98-2.4-.21-9.67-.29-9.67-.29v-2.54s-9.83-2.43-16.69-5.29c-146.57-61.2-148.11-268.17-1.74-327.12,2.67-1.07,18.74-6.76,18.74-6.76.03-.84,0-2.83,0-4.3-24.87,7.33-48.7,19.49-68.56,36.17-97.16,81.56-81.82,233.66,27.86,295.74,89.34,50.57,206.09,14.71,250.81-77.11,3.01-6.19,10.79-25.24,10.79-25.24l9.58-7.59s27.06-.02,28.06-.05c.26,0,1.09-4.15,1.09-5.31ZM1077.41,151.67h-10.49c-.04,2.13-.04,6.08-.04,6.08l2.74.02-.06,8.64-2.66.07s-.05,1.98,0,3.15c1.46.07,2.75-.03,2.75-.03v9.65s-1.63.13-2.74.15c-.01,3.56-.01,3.98-.01,3.98,0,0,3.79-.15,6.03-.16.02-7.6-.08-25.49-.08-25.49l3.06-.06v25.47h1.5v-31.46ZM1062.42,152.42h-30.73v36.71h-48.71l.75,45.7h21.73l.05,179.46h-21.78s.75,45.27.75,45.27h44.59c.4,0,1.17.05,2.34.03l.29,31.43h30.73l.22-31.46h19.27v31.46h31.48v-34.46c45.99-8.91,77.03-43.13,87.93-87.78,12.37-50.69,2.06-119.84-41.11-153.42-13.53-10.53-29.95-17.76-46.71-21.1l-.1-41.84h-31.48v36.71c-6.97-.26-11.69-.21-19.48,0v-36.71ZM1187.26,193.19c-12.35-10.5-29.54-21.46-44.48-27.83-2.97-1.27-23.85-8.45-25.22-7.83-.01.07.06,4.29.06,4.29,0,0,2.82.82,6.4,2.06,55.98,19.41,92.52,54.06,111.86,110.67,1.44,4.2,3.17,9.72,3.17,9.72l9.02,6.75h39.9l-.71-4.51-36.07-.3-9.23-6.77s-7.82-22.96-10.57-28.85c-9.89-21.21-26.34-42.25-44.14-57.38ZM1027.19,158.42c-36.35,10.59-68.47,32.66-90.99,62.98-13.04,17.56-24.63,39.83-29.48,61.18-1.6,7.04-4.97,24.7-4.76,31.28.09,2.87.02,7.14.02,8.27,0,1.6-.1,11.12.06,13.44,3.02,45.64,23.78,86.69,57.31,117.28,19.17,17.49,42.55,30.14,67.45,37.43.06-.26.06-5.15.06-5.15,0,0-4.24-1.19-5.32-1.57-8.61-3.03-17.42-7.06-25.58-11.14-3.41-1.7-8.22-5.7-11.55-7.05-1.66-.68-5.42-.52-5.42-.52l-.16-3.97s-11.27-7.76-13.85-9.93c-29.36-24.7-51.6-64.52-56.86-102.73-.33-2.41-.68-10.25-.68-10.25l9.36-10.11s64.3-.17,84.16-.15v-5.67c-2.3,0-44.31-.32-44.31-.32h-40.43l-8.59-11.2s1.32-15.74,2.1-19.69c7.06-35.78,28.24-69.25,55.22-93.11,5.33-4.72,10.82-8.24,12.58-9.53.18-.13-.04.94-.07-.75-.03-1.96-.01-.87-.08-3.33,0,0,2.59-.1,5.07-.21.53-.02,1.25-.42,1.25-.42,3.58-2.51,7.17-4.9,10.03-6.46,8.39-4.59,18.43-9.17,27.5-12.22,1.32-.44,5.99-1.82,5.99-1.82,0-1.18-.01-3-.01-4.55ZM1240.4,300h49.39s-.49-5.24-.78-5.24l-41.68-.37-11.52-8.09s-4.35-14.56-6.46-20.2c-15.84-42.37-50.81-77.82-92.76-94.55-6.14-2.45-12.78-4.8-18.83-6.45.04,2.31,0,4.02,0,4.02,0,0,2.18.81,4.59,1.68,54.1,19.46,90.23,55.31,107.41,110.63,1.01,3.24,3.16,12.57,3.16,12.57l7.47,6.02ZM1027.19,167.41c-1.5-1.1-12.42,3.4-14.76,4.35-5.79,2.34-11.87,5.15-17.38,8.1-2.18,1.17-2.93,1.67-6.09,4.02,9.74.24,15.06-3.97,22.49-7.1,4.33-1.83,11.01-4.22,15.74-5.57v-3.79ZM1234.41,309.74h20.61v-6s-15.96-.15-15.96-.15l-9.62-7.91s-2.51-11.82-3.86-16.07c-12.35-39.08-37.93-72.5-73.97-92.37-10.57-5.83-21.81-10.36-33.35-13.85-.08,0-.45-.11-.45-.11v4.92s11.35,3.49,13.69,4.42c41.01,16.37,76.31,54.22,89.28,96.54,1.76,5.73,5.01,23.58,5.01,23.58l8.61,6.99ZM1006.22,183.88c6.41.1,15.31.06,15.31.06h5.67s.03-2.32-.04-3.69c-.01-.21.02-4.03,0-4.25-.2-2.31-20.95,7.87-20.95,7.87ZM1290.24,311.99l-56.35.29-10.95-8.31s-2.19-12.33-3.36-16.87c-12.45-48.32-49.4-86.75-95.72-103.58-1.96-.71-5.97-1.89-5.97-1.89l.12,5.12s10.14,3.27,12.06,4.05c47.73,19.21,80.5,62.08,88.92,112.42.35,2.1.94,6.93.94,6.93l12.37,7.93s38.84-.12,57.95-.1v-6ZM1000.97,311.99l-75.77.32-8.82-12.65s1.97-10.84,2.51-13.16c8.31-35.91,30.71-66.91,58.9-89.82.03-2.68-.1-5.3-.1-5.3,0,0-1.09.51-2.84,1.6-29.9,22.83-51.67,56.63-60.45,93.53-.86,3.63-3.21,22.44-3.21,22.44l7.32,9.43,82.46.35v-6.75ZM1000.97,303.75l-64.64.31-9.43-12.09s7.34-26.13,12.98-37.68c7.79-15.95,14.82-25.71,31.19-41.68,2.25-2.19,4.13-3.22,6.74-5.44v-6.77c-22.5,18.03-40.73,44.74-51.4,71.88-2.89,7.36-6.36,26.62-6.36,26.62l7.09,10.26s25.16-.11,32.12-.25c1.63-.03,6.72.03,8.41.02,4.85-.03,29.52-.23,33.3-.4v-4.77ZM1000.97,294.76h-54.33l-9.22-13.21c5.24-18.33,15.16-35,27.19-49.72,3.98-4.87,9.47-10.25,11.87-13.27.35-.44,1.15-1.45,1.15-1.45,0,0,.04-1.8.12-6.44.02-.83-10.55,9.56-11.98,11.07-17.14,18.03-27.58,42.44-33.94,63.8-.55,1.84-1.4,5.43-1.4,5.43l7.18,9.49s15.45-.24,24.8-.42l38.57-.04v-5.25ZM1000.97,285.77h-42.34l-9.52-14.05s10.33-19.28,22.39-36.34c2.15-3.04,6.14-7.81,6.14-7.81l.09-5.47s-2.93,3.1-4.51,4.85c-11.89,13.22-21.57,26-28.47,42.7-.99,2.4-3.58,11.4-3.58,11.4l7.45,10.56s7.6-.1,10.6-.08c11.83.06,25.18-.21,36.98-.03,2.79.04,4.78.03,4.78.03,0,0,0-2.96,0-5.76ZM959.72,281.79l41.24.23v-5.24h-29.6c-2.47-4.14-8.87-12.37-8.79-12.43,0,0,14.57-22.7,15.97-24.48.56-.71,5.38-.84,5.23-.69-1.06,1.13-8.79,12.06-9.93,13.6-2.24,3.03-6.78,11.05-6.78,11.05,0,0,6.06,9.2,6.54,9.2h27.35v-32.21h-23.13s-.1-5.5-.11-6.74c-.69-.1.56-.44,0,0-1.94,1.54-9.99,13.3-11.85,16-2.3,3.35-12.77,21.66-12.77,21.66l6.61,10.05ZM1255.02,321.72h-24.45l-15.13-9.5s-.95-11.04-1.82-15.41c-2.15-10.84-7.23-25.84-12-35.95-1.19-2.52-3.06-6.11-5.04-8.07,3.3,8.48,7.15,16.56,9.4,25.43,6.76,26.67,8.28,61,2.4,87.87-1.22,5.56-2.57,10.06-5.05,16.3,1.84-3.08,2.86-5.92,3.67-7.79,2.55-5.89,5.31-16.36,6.63-22.74.68-3.31,2.9-16.04,2.9-16.04l14.46-8.42,24.04-.36v-5.34ZM918.65,330.91l-8.3,9.12s-.94,38.53,34.85,86.52c9.33,12.51,21.2,21.39,33.49,30.43-.04-.91-.17-3.83-.19-5.08,0,0-10.06-8.11-12.02-9.92-22.27-20.51-39.73-48.43-47.16-77.96-.64-2.53-2.89-16.24-2.89-16.24l11.51-11.77s70.76-.76,73.03-.79v-4.66c-1.47-.12-82.32.35-82.32.35ZM1290.24,335.96c.33-2.37.19-6.07.19-6.07l-58.18.49-13.01,7.47s-.66,4.55-1.02,6.64c-8.6,50.04-43.92,105.24-96.41,116.38-2.01.43-4.15.9-4.15.9,0,0,.03.85.02,3.44,0,1.12-.25,1.2,1.33,1.12,4.09-.21,16.32-5.86,20.59-7.9,39.05-18.6,69.12-54.85,79.99-96.84,1.21-4.66,3.25-16.13,3.25-16.13l14.2-9.5h53.21ZM1000.97,338.95l-70.57.36-10.06,10.12s2.18,42.94,45.71,88.02c1.55,1.61,11.99,10.32,12.59,10.34l-.26-5.76c-22.4-19.45-43.09-46.97-50.34-76.26-.54-2.16-1.28-9.18-1.28-9.18l9.27-11.75s48.33-.36,64.93-.64v-5.25ZM1254.63,339.68l-16.24-.31-12.55,8.24s-1.14,6.22-1.73,8.76c-12.31,52.38-49.71,95.11-100.85,112.69-2.55.88-5.6,1.58-5.6,1.58.06,0-.03,1.61,0,4.02,48.56-10.94,89.09-51.29,105.36-97.64,1.86-5.3,6.94-24.53,6.94-24.53l10.67-7.45s8.9,0,13.94,0l.06-5.35ZM946.63,353.94l54.58-.12c0-2.56-.1-5.22-.1-5.22l-62.02.06-8.21,10.15s1.1,10.42,4.51,18.34c9.94,23.05,24.91,44.45,43.2,61.31,0-2-.2-6.38-.2-6.38,0,0-6.73-5.32-14.14-14.87s-15.23-20.96-20.39-32.06c-1.4-3.01-6.66-17.39-6.66-17.39,0,0,7.71-10.41,9.41-13.83ZM1207.52,422.58c8.69-11.84,17.58-27.73,22.59-41.48,1.54-4.24,6.49-20.48,6.49-20.48l10.26-6.99,40.02.32c.39-.08,1.66.02,1.66.02l.56-5.27-46.72-.24-10.08,6.38s-3.24,15.33-6,23.2c-17.44,49.82-56.41,83.16-105.46,99.87-.87.3-2.97,1.01-2.97,1.01,0,0-.01,3.58-.01,4.72,35.24-10.07,67.96-31.49,89.66-61.06ZM1000.97,362.93v-5.17c-1.27,0-51.89-.36-51.89-.36l-8.08,11.29s1.37,4.47,1.77,5.58c5.24,14.63,13.3,27.62,22.97,39.76.87,1.09,11.84,12.62,12.74,13.31l-.15-5.91c-11.65-12.7-21.34-27.13-28.92-42.6l9.21-15.91h42.34ZM1287.99,357.69l-39.54-.4-9.07,5.69s-2.55,8.4-3.49,11.17c-17.2,50.54-51.31,86.93-100.8,106.75-2.54,1.02-17.12,5.74-17.12,5.74l.03,5.85s12.22-3.63,18.26-5.92c40.82-15.44,78.37-50.32,96.41-90.16,1.7-3.76,8.9-24.61,8.9-24.61l8.37-8.35s35.35-.44,37.28-.53c.26-.01.65-3.53.75-5.23ZM1000.97,366.67h-40.84l-6.82,11.98s5.23,10.63,6.88,13.43c4.91,8.34,11.83,17.04,18.32,24.23-.15-3.44-.17-5.92-.17-5.92,0,0-4.73-7.44-7.35-11.26-1.13-1.65-8.08-11.97-8.08-11.97l9.21-15.24h28.85v-5.24ZM1000.97,375.66h-26.48l-6.97,11.57s11.27,16.65,14.76,21.39h18.69v-32.96ZM1026.87,482.17c.01-1.44,0-5.33,0-5.33,0,0-8.79-2.59-13.62-4.78-5.98-2.71-14.18-7.18-14.18-7.18,0,0-5.61-.06-9.35-.07,11.1,7.67,24.4,12.99,37.15,17.35ZM1026.88,464.68c.27-.09-18.22.13-21.05.13l9.36,4.88,11.69,4.38c-.1-7.42,0-9.39,0-9.39ZM1077.41,464.88h-1.62s.2,25.52.2,25.52l-2.52-.02-.27-23.21-5.79.1-.04,2.33s2.07-.03,4.05-.12c.05,3.09.07,9.48.07,9.48,0,0-2.39.1-4.57.08v2.24s4.5.06,4.5.06l.06,8.97-4.55.06.04,5.56s-3.06.03-5.27.13c0,0,0,.59,0,.85l30.7.1v-.75h-13.86c-.08,0-.88-.01-.88-.01l-.25-31.38Z"/>
    <path class="cls-3" d="M1056.92,413.85s-.03,0-.05,0c-.81-.27-1.21-1.72-1.14-2.58l.05-170.82h0s-.12-6.1-.07-6.1h23.03s.01,0,.01,0c24.64,1.99,44.35,9.44,58.26,30.48,22.77,34.46,21.9,105.2-11.55,132.92-7.86,6.51-28.62,16.1-38.6,16.1h-29.95ZM1075.91,240.06h-14.03c-.06,0-.1.05-.1.1v28.26c0,.06.05.1.1.1,2.8.07,5.35.08,7.21.08.1,0,.17.08.17.17l.07,2.51s6.02.04,6.6.02c.06,0,.09-.05.09-.1v-31.05c-.01-.06-.06-.1-.12-.1ZM1087.65,240.91s-4.72-.77-7.82-.76c-.04,0-.06.03-.06.07-.14,11.13.13,32.1.16,33.77,0,.06-.04.1-.1.1-.88-.02-10.39-.02-10.39-.02l.02,2.38c0,.09-.06.17-.16.18-1.79.13-6.44.14-7.42.14-.06,0-.1.05-.1.1,0,0,.04,2.22.1,2.22,1.04-.05,10.17-.39,13.12-.28.12,0,.21.1.21.23v2.21h6.82l6.3-6.63s-.22-7-.24-8.74c-.06-5.3-.17-10.11-.25-15.57-.02-1.53-.19-9.4-.19-9.4ZM1098.58,243.2c-.01-.4-7.34-1.98-8.27-1.84-.05,0,.06,7.37.12,13.05.03,2.37.1,8.48.24,11.66.18,3.83.01,9.94.01,9.94l-7.73,8.25-7.56-.02-.03,1.8c0,.12-.09.22-.21.23-2.3.2-13.5.45-13.5.45v4.62l5.68-.08-.03-1.95c0-.18.13-.32.31-.33,1.79-.07,10.94-.19,13.75-.13.21,0,.37.18.37.39v1.52s8.19-.15,8.59-.16c.02,0,.05,0,.07-.03.43-.4,5.61-5.2,8.62-8.34.01-.01.02-.03.02-.05,0-5.92-.3-34.27-.47-38.98ZM1101.54,243.98c-.06-.02-.11.03-.11.09.01.8.09,5.46.09,6.81.06,11.05.53,21.55.27,32.58,0,.02,0,.04-.02.05-2.51,2.49-9.89,9.16-10.37,9.59-.02.01-.03.02-.06.02-.46,0-9.55,0-9.55,0l.02,1.99c0,.18-.14.32-.32.32-2.91-.06-11.7.07-14.01.02-.06,0-.09-.05-.09-.1l-.04-1.26c0-.06-.05-.1-.1-.1,0,0-5.58-.01-5.58.04.01.53,0,3.39,0,6.65,0,.06,7.33-.01,7.33-.01v-2.43c3.4-.07,10.79-.1,14.55.06l.06,2.17,10.43.08,14.47-14.88s.46-27.06.46-38.8c0-.1-6.7-2.72-7.43-2.91ZM1111.23,248.47v38.36s-.01.08-.03.1c-3.24,3.51-15.71,17.22-15.71,17.22l-11.72-.18-.02,2.29c-4.91.27-11.98.13-14.71.13v-1.92s-2.76.03-7.38-.02c-.06,0,.1,39.64.1,39.64,0,.06-.1.01-.04.01,6.28.04,12.9.13,19.26,0l.06-1.51c3.72-.21,14.34-.32,17.94.04.26.03.23,2.28.23,2.28l12.97.31,9.59,13.17s1.48,24.74,2.44,32.06c0,.04-.45-.24-.41-.23,1.63.67,5.27-3.35,6.16-4.42,10.63-12.76,16.49-38.4,17.23-54.73,1.34-29.39-7.37-68.53-35.81-82.69-.07-.03-.15.02-.15.09ZM1061.89,353.88l12.25.04v-2.24c.86-.04,18.35.17,19.27.35l.05,1.88,7.5.15,9.53,9.21s.55,27.2,1.12,36.24c0,.06.05.11.11.1,1.86-.17,8.05-3.85,8.13-5.25.28-4.93-2-35.1-2-35.1l-8.27-10.88-10.38.05s.08,1.42-.14,1.44c-1.61.18-16.17-.06-18.08-.08v-1.74c-.59-.05-1.71-.13-3.06-.1-2.23.04-16.03-.04-16.03-.04v5.95ZM1101.49,373.05l.27,31.15s-.04.01,0,0c2.39-.71,5.69-2.18,5.76-2.6.16-.91-1.23-36.61-1.23-36.61l-7.16-7.31-5.56-.05-.02,1.57c-2.23.1-17.52-.11-19.35-.15v-1.91s-12.29-.09-12.29-.09v7.19l6.89.03.03-1.97c2.48-.05,13.76.08,16.27.13.06,0-.02,2.42-.02,2.42l8.53.3s7.59,7.2,7.86,7.85c0,.01,0,.03,0,.04ZM1091.81,383.06l.46,24.17c0,.07-3.46.61-3.39.59l8.83-2.64s.07-.05.07-.1l-.28-31.44-5.38-5.78-6.91-.12v1.86c-.86.06-13.72.23-16.26.07l-.04-1.92s-4.24-.1-6.39,0c-.04,0-.03.13-.03.17v4.65c0,.06.05.1.11.1l15.94.17.05,1.96c.66.03,9.63.1,9.63.1,0,0,3.58,8.16,3.58,8.18ZM1085.65,407.86c.06,0,2.57.01,2.57-.04l.25-24.03-2.64-6.36h-7.03l-.05,3.02-16.25.06c-.05,0-.07.47-.08.52-.8,9.28-.48,18.36.09,27.48,0,.06.05.1.11.1l23.02-.73Z"/>
    <path class="cls-2" d="M1210.85,178.15c20.38,18.8,39.08,44.31,49.19,70.32.85,2.19,4.38,12.06,4.38,12.06l-11.81-.14s-4.47-11.22-6.18-14.8c-27.36-57.41-79.99-98.32-143.61-108.15-154.5-23.86-269.99,143.3-192.29,279.86,76.81,135,268.75,123.3,335.91-14.61,1.46-3,6.31-13.19,6.31-13.19l11.55-.04s-4.98,21.2-29.78,55.08c-112.59,147.63-351.73,75.52-359.72-112.13-7.56-177.59,205.1-275.05,336.05-154.26ZM1190.83,165.22c-87.91-63.42-211.65-44.57-275.1,43.26-80.9,111.97-25.19,267.51,105.98,305.2,94.3,27.1,197.58-24.09,234.7-113.73.38-.92,2.39-6.52,2.39-6.52l-3.89-.03s-6.3,13.15-9.59,19.44c-49.09,93.84-167.02,130.55-261.12,80.65-108.91-57.76-135.77-203.67-53.56-296.32,84.21-94.91,235.66-83.47,305.27,22.24,7.74,11.75,14.01,24.79,18.78,38.01l5.32.08c-7-17.9-15.71-34.58-27.09-50.08-11.37-15.49-26.44-30.9-42.09-42.19Z"/>
  </g>
  <g class="cls-12">
    <rect class="cls-5" x="784" y="4.86" width="612.39" height="639.75"/>
  </g>
  <circle class="cls-8" cx="882.67" cy="186.75" r="4.63"/>
  <circle class="cls-7" cx="1096.87" cy="89.67" r="4.63"/>
  <circle class="cls-6" cx="1290.24" cy="225.28" r="4.63"/>
  <circle class="cls-10" cx="1272.5" cy="459.55" r="4.63"/>
  <circle class="cls-1" cx="1050.23" cy="562.59" r="4.63"/>
  <circle class="cls-8" cx="855.88" cy="419.57" r="4.63"/>
</svg>